# xmcd CD database file
# Generated: Fri Mar 14 13:06:44 2003 by KSCD
# 
# Track frame offsets:
#       150
#       14126
#       27118
#       41426
#       55271
#       69011
#       85177
#       100669
#       117562
#       129411
#       140506
#       158775
#       169767
#       182853
#       199962
#
# Disc length: 2866 seconds
#
# Revision: 9
# Processed by: cddbd v1.4PL0 Copyright (c) Steve Scherf et al.
# Submitted via: Kscd 1.3.3
#
DISCID=ca0b300f
DTITLE=Ted Roddy with the Tearjoint Troubadores - tear time
DYEAR=1900
DGENRE=
TTITLE0=It Hasn't Happened Yet
TTITLE1=tearjoint
TTITLE2=Se Habla Heartache
TTITLE3=All Night Texas Turnaround
TTITLE4=Something good
TTITLE5=Let's Drown Together
TTITLE6=Hillibilly Rocket
TTITLE7=War Between Two Loves
TTITLE8=I Like Whiskey
TTITLE9=Border of Mexico
TTITLE10=The Goodurn
TTITLE11=Pretty Baby
TTITLE12=Presence Known
TTITLE13=By My Side
TTITLE14=Pick Up and Move On
EXTD=
EXTT0=
EXTT1=
EXTT2=
EXTT3=
EXTT4=
EXTT5=
EXTT6=
EXTT7=
EXTT8=
EXTT9=
EXTT10=
EXTT11=
EXTT12=
EXTT13=
EXTT14=
PLAYORDER=
